<svg id="Layer_1" data-name="Layer 1" xmlns="http://www.w3.org/2000/svg" viewBox="0 0 139 139"><defs><style>.cls-1{opacity:0.5;}.cls-2{fill:#efefef;}.cls-3{font-size:11.95px;font-family:Gotham-Bold, Gotham;font-weight:700;}.cls-3,.cls-8{fill:#063e56;}.cls-4{letter-spacing:-0.02em;}.cls-5{letter-spacing:-0.03em;}.cls-6{letter-spacing:-0.05em;}.cls-7{letter-spacing:-0.09em;}</style></defs><title>icon-surveys-data</title><g class="cls-1"><rect class="cls-2" width="139" height="139" rx="4" ry="4"/></g><text class="cls-3" transform="translate(16.17 118.01)">SU<tspan class="cls-4" x="16.68" y="0">R</tspan><tspan x="25.07" y="0">VE</tspan><tspan class="cls-5" x="42.04" y="0">Y</tspan><tspan x="50.17" y="0">S &amp; </tspan><tspan class="cls-6" x="73.29" y="0">D</tspan><tspan class="cls-7" x="82.04" y="0">AT</tspan><tspan x="97.07" y="0">A</tspan></text><path class="cls-8" d="M846.38,1994.53,841.7,1988H821.58v3.74h-2.81v3.74H816v48.64h56.12v-49.58Zm-28.54,47.7v-44.9h17.29l4.68,6.55h0l4.39,6.13a.94.94,0,0,0,.76.39v0h25.26v31.8Zm52.38-33.67H845.46l-3.35-4.68h28.1Zm0-6.55H840.77l-4.41-6.16h0l-.28-.39H820.64v-1.87h17.29l4.68,6.55h27.61Zm-26.65-3.74-4.68-6.55H823.45v-1.87h17.29l4.68,6.55h24.8v1.87Z" transform="translate(-775 -1956)"/><path class="cls-8" d="M841.22,2039.42h26.19v-18.71H841.22Zm1.87-16.84h22.45v15H843.09Z" transform="translate(-775 -1956)"/><rect class="cls-8" x="71.83" y="69.39" width="9.35" height="1.87"/><rect class="cls-8" x="71.83" y="73.13" width="14.97" height="1.87"/><rect class="cls-8" x="71.83" y="76.88" width="14.97" height="1.87"/></svg>