<svg id="Layer_1" data-name="Layer 1" xmlns="http://www.w3.org/2000/svg" viewBox="0 0 139 139"><defs><style>.cls-1{opacity:0.5;}.cls-2{fill:#efefef;}.cls-3{font-size:11.95px;font-family:Gotham-Bold, Gotham;font-weight:700;}.cls-3,.cls-4{fill:#063e56;}</style></defs><title>icon-disclaimers</title><g class="cls-1"><rect class="cls-2" width="139" height="139" rx="4" ry="4"/></g><text class="cls-3" transform="translate(26.45 118.01)">DISCLAIMERS</text><path class="cls-4" d="M1221.86,2046.68h-33.8a4.55,4.55,0,0,1-4.55-4.55v-44a4.55,4.55,0,0,1,4.55-4.55h4.3a.91.91,0,0,1,0,1.82h-4.3a2.73,2.73,0,0,0-2.73,2.73v44a2.73,2.73,0,0,0,2.73,2.73h33.8a2.73,2.73,0,0,0,2.73-2.73v-4.3a.91.91,0,1,1,1.82,0v4.3A4.55,4.55,0,0,1,1221.86,2046.68Z" transform="translate(-1140 -1956)"/><path class="cls-4" d="M1231,2036.92h-33.8a4.55,4.55,0,0,1-4.55-4.55v-44a4.55,4.55,0,0,1,4.55-4.55h24.75a.91.91,0,0,1,0,1.82h-24.75a2.73,2.73,0,0,0-2.73,2.73v44a2.73,2.73,0,0,0,2.73,2.73H1231a2.73,2.73,0,0,0,2.73-2.73v-34.62a.91.91,0,1,1,1.82,0v34.62A4.55,4.55,0,0,1,1231,2036.92Z" transform="translate(-1140 -1956)"/><path class="cls-4" d="M1234.59,1998.66h-12.68a.91.91,0,0,1-.91-.91v-12.69a.91.91,0,1,1,1.82,0v11.78h11.78a.91.91,0,0,1,0,1.82Z" transform="translate(-1140 -1956)"/><path class="cls-4" d="M1234.59,1998.66a.91.91,0,0,1-.65-.27l-12.69-13a.91.91,0,0,1,1.3-1.27l12.68,13a.91.91,0,0,1-.65,1.54Z" transform="translate(-1140 -1956)"/><path class="cls-4" d="M1221.17,2024h-15.82a3.82,3.82,0,0,1-3.3-1.94,4.31,4.31,0,0,1,.19-4.24l7.9-14a3.85,3.85,0,0,1,3.19-2.2,3.56,3.56,0,0,1,3,2l7.91,14.15a4.43,4.43,0,0,1,.19,4.27A3.82,3.82,0,0,1,1221.17,2024Zm-7.83-20.4c-.49,0-1,.44-1.45,1.17l-7.9,13.95a2.55,2.55,0,0,0-.19,2.34,1.84,1.84,0,0,0,1.57.94h15.82a1.84,1.84,0,0,0,1.58-.93,2.31,2.31,0,0,0-.2-2.19l-7.92-14.2C1214.25,2004,1213.79,2003.6,1213.33,2003.6Z" transform="translate(-1140 -1956)"/><rect class="cls-4" x="72" y="61.62" width="2" height="2"/><rect class="cls-4" x="72" y="53" width="2" height="8"/></svg>