<svg id="Layer_1" data-name="Layer 1" xmlns="http://www.w3.org/2000/svg" viewBox="0 0 139 139"><defs><style>.cls-1{opacity:0.5;}.cls-2{fill:#efefef;}.cls-3{font-size:11.95px;font-family:Gotham-Bold, Gotham;font-weight:700;}.cls-3,.cls-5{fill:#063e56;}.cls-4{letter-spacing:-0.09em;}</style></defs><title>icon-email-options</title><g class="cls-1"><rect class="cls-2" width="139" height="139" rx="4" ry="4"/></g><text class="cls-3" transform="translate(22.46 118.01)">EMAIL OP<tspan class="cls-4" x="60.93" y="0">T</tspan><tspan x="67.6" y="0">-INS</tspan></text><path class="cls-5" d="M1421.44,2030.88a1,1,0,0,0-.81-.68l-7.71-1.08-3.44-6.72a1,1,0,0,0-1.76,0l-3.44,6.72-7.71,1.08a1,1,0,0,0-.54,1.7l5.55,5.22-1.31,7.36a1,1,0,0,0,1.42,1.06l6.9-3.5,6.9,3.5a1,1,0,0,0,1.42-1.06l-1.31-7.36,5.55-5.22A1,1,0,0,0,1421.44,2030.88Zm-7.57,5.16a1,1,0,0,0-.3.9l1.05,5.93L1409,2040a1,1,0,0,0-.89,0l-5.58,2.83,1.05-5.93a1,1,0,0,0-.3-.9l-4.44-4.17,6.17-.86a1,1,0,0,0,.74-.53l2.79-5.45,2.79,5.45a1,1,0,0,0,.74.53l6.17.86Z" transform="translate(-1323 -1956)"/><path class="cls-5" d="M1388.15,2019.73a5.54,5.54,0,0,0,7.19,0l23.16-20.45v26.54a1,1,0,1,0,2,0v-28.76a1,1,0,0,0-.06-.33v0l0-.07a1,1,0,0,0-.15-.22l-.08-.08a1,1,0,0,0-.2-.14l-.1,0a1,1,0,0,0-.35-.07H1364a1,1,0,0,0-.35.07l-.1,0a.9.9,0,0,0-.2.14l-.08.08a.91.91,0,0,0-.15.22l0,.07v0a1,1,0,0,0-.06.33s0,0,0,0v38.65h0a1,1,0,0,0,.05.32l0,0,0,.09a.94.94,0,0,0,.14.2l.08.08a.88.88,0,0,0,.2.13l.1,0a1,1,0,0,0,.35.07h28.74a1,1,0,1,0,0-2h-25.89c4.51-3.57,14.67-11.67,19.89-16.25Zm28.73-21.66L1394,2018.25a3.51,3.51,0,0,1-4.56,0l-2-1.73v0l-.08-.06-20.79-18.36ZM1365,2033.69v-34.41l20.25,17.88C1379.74,2022,1369,2030.49,1365,2033.69Z" transform="translate(-1323 -1956)"/></svg>