<svg id="Layer_1" data-name="Layer 1" xmlns="http://www.w3.org/2000/svg" viewBox="0 0 139 139"><defs><style>.cls-1{opacity:0.5;}.cls-2{fill:#efefef;}.cls-3{font-size:11.95px;font-family:Gotham-Bold, Gotham;font-weight:700;}.cls-3,.cls-4{fill:#063e56;}</style></defs><title>icon-lead-gen</title><g class="cls-1"><rect class="cls-2" width="139" height="139" rx="4" ry="4"/></g><text class="cls-3" transform="translate(36.69 118.01)">LEAD GEN</text><path class="cls-4" d="M1004.49,2009.31l-4.05-4.05a1.09,1.09,0,0,0-.77-.32h-9.84a1.09,1.09,0,0,0-.77,1.87l3.6,3.6L989,2014a1.09,1.09,0,0,0,.77,1.87h9.84a1.09,1.09,0,0,0,.77-.32l4.05-4.05h21.42v-2.19Zm-5.28,4.37h-6.75l2.51-2.51a1.09,1.09,0,0,0,0-1.55l-2.51-2.51h6.75l3.28,3.28Z" transform="translate(-957 -1956)"/><path class="cls-4" d="M1025.9,1988.53a21.75,21.75,0,0,0-21.57,18.42l2.16.34a19.68,19.68,0,1,1,0,6.22l-2.16.34a21.86,21.86,0,1,0,21.57-25.32Z" transform="translate(-957 -1956)"/><path class="cls-4" d="M1025.9,1992.91a17.54,17.54,0,0,0-17.14,14l2.14.44a15.31,15.31,0,1,1,0,6.13l-2.14.43a17.5,17.5,0,1,0,17.14-21Z" transform="translate(-957 -1956)"/><path class="cls-4" d="M1025.9,2000.56a9.8,9.8,0,0,0-9.12,6.15l2,.82a7.65,7.65,0,1,1,0,5.74l-2,.82a9.84,9.84,0,1,0,9.12-13.53Z" transform="translate(-957 -1956)"/><path class="cls-4" d="M1025.9,2004.94a5.46,5.46,0,0,0-3.59,1.36l1.44,1.65a3.23,3.23,0,0,1,2.15-.82,3.28,3.28,0,1,1,0,6.56,3.24,3.24,0,0,1-2.15-.82l-1.44,1.65a5.46,5.46,0,1,0,3.58-9.57Z" transform="translate(-957 -1956)"/><path class="cls-4" d="M1054.34,2010.4a28.43,28.43,0,0,0-55.73-8l2.1.61a26.24,26.24,0,1,1,0,14.7l-2.1.61a28.46,28.46,0,0,0,13,16.53l-3.95,8.69a3.35,3.35,0,0,0,2.23,4.63,3.44,3.44,0,0,0,.82.1,3.33,3.33,0,0,0,3-1.85l4.39-8.77a28,28,0,0,0,15.91,0l4.39,8.78a3.33,3.33,0,0,0,3,1.85,3.38,3.38,0,0,0,.82-.1,3.34,3.34,0,0,0,2.23-4.63l-4-8.73A28.43,28.43,0,0,0,1054.34,2010.4Zm-42.64,35.08a1.16,1.16,0,0,1-1.31.61,1.16,1.16,0,0,1-.77-1.6l3.89-8.55c.8.39,1.62.74,2.45,1.06Zm30.68-1a1.16,1.16,0,0,1-2.09,1L1036,2037q1.25-.48,2.44-1.07Z" transform="translate(-957 -1956)"/><rect class="cls-4" x="72.19" y="85.02" width="2.19" height="2.19"/><rect class="cls-4" x="67.81" y="85.02" width="2.19" height="2.19"/><rect class="cls-4" x="63.44" y="85.02" width="2.19" height="2.19"/></svg>