<svg id="Layer_1" data-name="Layer 1" xmlns="http://www.w3.org/2000/svg" viewBox="0 0 139 139"><defs><style>.cls-1{opacity:0.5;}.cls-2{fill:#efefef;}.cls-3{font-size:11.95px;font-family:Gotham-Bold, Gotham;font-weight:700;}.cls-3,.cls-7{fill:#063e56;}.cls-4{letter-spacing:-0.03em;}.cls-5{letter-spacing:-0.03em;}.cls-6{letter-spacing:0em;}</style></defs><title>icon-photo-gallery</title><g class="cls-1"><rect class="cls-2" width="139" height="139" rx="4" ry="4"/></g><text class="cls-3" transform="translate(16.06 118.01)">PH<tspan class="cls-4" x="17.06" y="0">OT</tspan><tspan x="34.23" y="0">O GALLE</tspan><tspan class="cls-5" x="89.56" y="0">R</tspan><tspan class="cls-6" x="97.9" y="0">Y</tspan></text><path class="cls-7" d="M693.67,1987.75H640.29a2.22,2.22,0,0,0-2.22,2.22v2.22h-2.23a2.23,2.23,0,0,0-2.22,2.22v2.22h-2.22a2.23,2.23,0,0,0-2.22,2.22v43.37a2.23,2.23,0,0,0,2.22,2.22h53.38a2.23,2.23,0,0,0,2.22-2.22V2040h2.22a2.23,2.23,0,0,0,2.23-2.23v-2.22h2.22a2.23,2.23,0,0,0,2.22-2.22V1990A2.23,2.23,0,0,0,693.67,1987.75Zm-62.28,11.12h53.38v24.85l-5.84-6.67a1.14,1.14,0,0,0-1.67,0l-7,8.05-19.18-17a1.11,1.11,0,0,0-1.48,0l-18.17,16.15Zm53.39,40v3.33H631.39v-15.07l18.91-16.81,19.28,17.14a1.17,1.17,0,0,0,.81.28,1.12,1.12,0,0,0,.77-.38l6.95-7.94,6.67,7.63v11.81h0Zm4.45-1.12H687v-38.93a2.23,2.23,0,0,0-2.22-2.22H635.84v-2.22h53.38Zm4.45-4.45h-2.22v-38.93a2.23,2.23,0,0,0-2.23-2.23H640.29V1990h53.38Z" transform="translate(-592 -1956)"/><path class="cls-7" d="M669.21,2005.55a4.45,4.45,0,1,0,4.45,4.45A4.45,4.45,0,0,0,669.21,2005.55Zm0,6.67a2.22,2.22,0,1,1,2.22-2.22A2.23,2.23,0,0,1,669.21,2012.22Z" transform="translate(-592 -1956)"/></svg>