<svg id="Layer_1" data-name="Layer 1" xmlns="http://www.w3.org/2000/svg" xmlns:xlink="http://www.w3.org/1999/xlink" viewBox="0 0 286.32 36.67"><defs><style>.cls-1,.cls-3{fill:none;}.cls-2{clip-path:url(#clip-path);}.cls-3{stroke:#dc5a24;stroke-miterlimit:10;stroke-width:2px;}</style><clipPath id="clip-path" transform="translate(-655.34 -1668.68)"><rect class="cls-1" x="654" y="1661" width="260" height="73"/></clipPath></defs><title>icon-waves</title><g id="recent_experiences_art" data-name="recent experiences art"><g class="cls-2"><polyline class="cls-3" points="0.66 1.33 14.23 13.34 27.8 1.33 41.37 13.34 54.94 1.33 68.51 13.34 82.08 1.33 95.64 13.34 109.22 1.33 122.78 13.34 136.35 1.33 149.93 13.34 163.5 1.33 177.07 13.34 190.64 1.33 204.21 13.34 217.78 1.33 231.35 13.34 244.93 1.33 258.5 13.34 272.08 1.33 285.66 13.34"/><polyline class="cls-3" points="0.66 12.34 14.23 24.34 27.8 12.34 41.37 24.34 54.94 12.34 68.51 24.34 82.08 12.34 95.64 24.34 109.22 12.34 122.78 24.34 136.35 12.34 149.93 24.34 163.5 12.34 177.07 24.34 190.64 12.34 204.21 24.34 217.78 12.34 231.35 24.34 244.93 12.34 258.5 24.34 272.08 12.34 285.66 24.34"/><polyline class="cls-3" points="0.66 23.34 14.23 35.34 27.8 23.34 41.37 35.34 54.94 23.34 68.51 35.34 82.08 23.34 95.64 35.34 109.22 23.34 122.78 35.34 136.35 23.34 149.93 35.34 163.5 23.34 177.07 35.34 190.64 23.34 204.21 35.34 217.78 23.34 231.35 35.34 244.93 23.34 258.5 35.34 272.08 23.34 285.66 35.34"/></g></g></svg>